<svg width="26.000000" height="25.000000" viewBox="0 0 26 25" fill="none" xmlns="http://www.w3.org/2000/svg" xmlns:xlink="http://www.w3.org/1999/xlink">
	<desc>
			Created with Pixso.
	</desc>
	<defs>
		<clipPath id="clip1_3732">
			<rect id="Frame" width="26.000000" height="25.000000" fill="white" fill-opacity="0"/>
		</clipPath>
	</defs>
	<g clip-path="url(#clip1_3732)">
		<path id="Rectangle" d="M10.95 3.57L15.49 3.57L15.49 23.01L10.95 23.01L10.95 3.57Z" fill="#FFFFFF" fill-opacity="1.000000" fill-rule="evenodd"/>
		<path id="Rectangle" d="M6.86 3.12L18.9 3.12L18.9 16.91L6.86 16.91L6.86 3.12Z" fill="#FFFFFF" fill-opacity="1.000000" fill-rule="evenodd"/>
		<path id="Shape" d="M12.97 23.49L13 23.49L12.99 23.49L12.97 23.49ZM13.06 23.49L13.05 23.49L13.07 23.49L13.06 23.49ZM12.94 23.49L12.96 23.49L12.95 23.49L12.94 23.49ZM13.1 23.49L13.08 23.49L13.11 23.49L13.1 23.49ZM12.91 23.49L12.92 23.49L12.91 23.49L12.91 23.49ZM13.14 23.49L13.12 23.49L13.14 23.49L13.14 23.49ZM13.17 23.49L13.16 23.49L13.18 23.49L13.17 23.49ZM12.86 23.49L12.88 23.49L12.88 23.49L12.86 23.49ZM13.21 23.49L13.19 23.49L13.22 23.49L13.21 23.49ZM12.83 23.49L12.85 23.49L12.84 23.49L12.83 23.49ZM13.25 23.49L13.23 23.49L13.25 23.49L13.25 23.49ZM12.79 23.49L12.82 23.49L12.8 23.49L12.79 23.49ZM12.75 23.49L12.77 23.49L12.77 23.49L12.75 23.49ZM13.27 23.49L13.27 23.49L13.29 23.49L13.27 23.49ZM12.71 23.49L12.74 23.49L12.73 23.49L12.71 23.49ZM13.31 23.49L13.3 23.49L13.33 23.49L13.31 23.49ZM13.35 23.48L13.33 23.49L13.37 23.48L13.35 23.48ZM12.68 23.48L12.71 23.49L12.69 23.48L12.68 23.48ZM12.65 23.48L12.68 23.48L12.66 23.48L12.64 23.48L12.65 23.48ZM13.39 23.48L13.37 23.48L13.39 23.48L13.41 23.48L13.39 23.48ZM13.42 23.48L13.41 23.48L13.44 23.48L13.42 23.48ZM12.6 23.48L12.63 23.48L12.62 23.48L12.6 23.48ZM12.57 23.48L12.6 23.48L12.58 23.48L12.57 23.48ZM13.46 23.48L13.44 23.48L13.48 23.48L13.46 23.48ZM12.53 23.48L12.57 23.48L12.54 23.48L12.53 23.48ZM13.5 23.48L13.48 23.48L13.51 23.48L13.5 23.48ZM12.49 23.48L12.53 23.48L12.52 23.48L12.49 23.48ZM13.53 23.48L13.52 23.48L13.56 23.48L13.53 23.48ZM12.45 23.48L12.49 23.48L12.47 23.48L12.45 23.48ZM13.57 23.48L13.55 23.48L13.59 23.48L13.57 23.48ZM12.42 23.47L12.46 23.48L12.43 23.47L12.42 23.47ZM13.61 23.47L13.58 23.48L13.62 23.47L13.61 23.47ZM13.64 23.47L13.61 23.47L13.64 23.47L13.68 23.47L13.64 23.47ZM12.4 23.47L12.44 23.47L12.4 23.47L12.37 23.47L12.4 23.47ZM13.68 23.47L13.66 23.47L13.7 23.47L13.68 23.47ZM12.34 23.47L12.38 23.47L12.37 23.47L12.34 23.47ZM12.31 23.47L12.35 23.47L12.33 23.47L12.31 23.47ZM13.72 23.47L13.69 23.47L13.73 23.47L13.72 23.47ZM12.29 23.47L12.33 23.47L12.29 23.47L12.26 23.46L12.29 23.47ZM13.75 23.47L13.72 23.47L13.75 23.47L13.79 23.46L13.75 23.47ZM13.78 23.46L13.77 23.47L13.81 23.46L13.78 23.46ZM12.23 23.46L12.27 23.47L12.26 23.46L12.23 23.46ZM12.2 23.46L12.24 23.46L12.22 23.46L12.2 23.46ZM13.82 23.46L13.8 23.46L13.84 23.46L13.82 23.46ZM12.17 23.46L12.21 23.46L12.18 23.46L12.17 23.46ZM13.87 23.46L13.84 23.46L13.87 23.46L13.87 23.46ZM12.13 23.46L12.16 23.46L12.15 23.46L12.13 23.46ZM13.89 23.46L13.88 23.46L13.91 23.46L13.89 23.46ZM13.93 23.45L13.92 23.46L13.95 23.45L13.93 23.45ZM12.1 23.45L12.13 23.46L12.11 23.45L12.1 23.45ZM12.07 23.45L12.09 23.45L12.07 23.45L12.07 23.45ZM13.97 23.45L13.95 23.45L13.98 23.45L13.97 23.45ZM14.04 23.44L14.03 23.45L14.05 23.44L14.04 23.44ZM11.99 23.44L12.01 23.45L12.01 23.44L11.99 23.44ZM11.96 23.44L11.98 23.44L11.97 23.44L11.96 23.44ZM14.08 23.44L14.07 23.44L14.08 23.44L14.08 23.44ZM11.22 23.33C5.79 22.48 1.63 17.8 1.63 12.16C1.63 5.92 6.72 0.86 13 0.86C19.27 0.86 24.36 5.92 24.36 12.16C24.36 17.8 20.2 22.48 14.77 23.33L14.77 15.43L17.42 15.43L17.92 12.16L14.77 12.16L14.77 10.04C14.77 9.15 15.21 8.27 16.62 8.27L18.06 8.27L18.06 5.49C18.06 5.49 16.75 5.27 15.51 5.27C12.92 5.27 11.22 6.84 11.22 9.67L11.22 12.16L8.33 12.16L8.33 15.43L11.22 15.43L11.22 23.33Z" fill="#000000" fill-opacity="1.000000" fill-rule="evenodd"/>
		<path id="Oval Copy 3" d="M13 23.89C6.48 23.89 1.2 18.64 1.2 12.16C1.2 5.68 6.48 0.43 13 0.43C19.51 0.43 24.79 5.68 24.79 12.16C24.79 18.64 19.51 23.89 13 23.89Z" stroke="#FFFFFF" stroke-opacity="1.000000" stroke-width="1.000000"/>
	</g>
</svg>
