<svg width="25.000000" height="26.000000" viewBox="0 0 25 26" fill="none" xmlns="http://www.w3.org/2000/svg" xmlns:xlink="http://www.w3.org/1999/xlink">
	<desc>
			Created with Pixso.
	</desc>
	<defs/>
	<path id="Rectangle" d="M19.02 5.34L4.64 5.34L4.64 19.96L19.02 19.96L19.02 5.34Z" fill="#FFFFFF" fill-opacity="1.000000" fill-rule="nonzero"/>
	<path id="Rectangle" d="M19.02 5.34L19.02 19.96L4.64 19.96L4.64 5.34L19.02 5.34Z" stroke="#979797" stroke-opacity="1.000000" stroke-width="1.000000"/>
	<path id="Shape" d="M11.95 0.89C18.43 0.89 23.7 6.16 23.7 12.65C23.7 19.13 18.43 24.4 11.95 24.4C5.46 24.4 0.19 19.13 0.19 12.65C0.19 6.16 5.46 0.89 11.95 0.89ZM11.95 5.3C9.95 5.3 9.7 5.31 8.92 5.34C8.13 5.38 7.6 5.5 7.13 5.69C6.65 5.87 6.24 6.12 5.83 6.53C5.42 6.94 5.17 7.35 4.98 7.83C4.8 8.3 4.68 8.84 4.64 9.62C4.61 10.4 4.6 10.65 4.6 12.65C4.6 14.64 4.61 14.89 4.64 15.68C4.68 16.46 4.8 16.99 4.98 17.46C5.17 17.94 5.42 18.35 5.83 18.76C6.24 19.17 6.65 19.42 7.13 19.61C7.6 19.79 8.13 19.91 8.92 19.95C9.7 19.98 9.95 19.99 11.95 19.99C13.94 19.99 14.19 19.98 14.97 19.95C15.76 19.91 16.29 19.79 16.76 19.61C17.24 19.42 17.65 19.17 18.06 18.76C18.47 18.35 18.72 17.94 18.91 17.46C19.09 16.99 19.21 16.46 19.25 15.68C19.28 14.89 19.29 14.64 19.29 12.65C19.29 10.65 19.28 10.4 19.25 9.62C19.21 8.84 19.09 8.3 18.91 7.83C18.72 7.35 18.47 6.94 18.06 6.53C17.65 6.12 17.24 5.87 16.76 5.69C16.29 5.5 15.76 5.38 14.97 5.34C14.19 5.31 13.94 5.3 11.95 5.3ZM11.95 6.62C13.91 6.62 14.14 6.63 14.91 6.67C15.63 6.7 16.02 6.82 16.28 6.92C16.62 7.05 16.87 7.21 17.12 7.47C17.38 7.73 17.54 7.97 17.67 8.31C17.77 8.57 17.89 8.96 17.93 9.68C17.96 10.45 17.97 10.68 17.97 12.65C17.97 14.61 17.96 14.84 17.93 15.62C17.89 16.33 17.77 16.72 17.67 16.98C17.54 17.32 17.38 17.57 17.12 17.82C16.87 18.08 16.62 18.24 16.28 18.37C16.02 18.47 15.63 18.59 14.91 18.63C14.14 18.66 13.91 18.67 11.95 18.67C9.98 18.67 9.75 18.66 8.98 18.63C8.26 18.59 7.87 18.47 7.61 18.37C7.27 18.24 7.02 18.08 6.77 17.82C6.51 17.57 6.35 17.32 6.22 16.98C6.12 16.72 6 16.33 5.96 15.62C5.93 14.84 5.92 14.61 5.92 12.65C5.92 10.68 5.93 10.45 5.96 9.68C6 8.96 6.12 8.57 6.22 8.31C6.35 7.97 6.51 7.73 6.77 7.47C7.02 7.21 7.27 7.05 7.61 6.92C7.87 6.82 8.26 6.7 8.98 6.67C9.75 6.63 9.98 6.62 11.95 6.62ZM11.95 8.87C9.86 8.87 8.17 10.56 8.17 12.65C8.17 14.73 9.86 16.42 11.95 16.42C14.03 16.42 15.72 14.73 15.72 12.65C15.72 10.56 14.03 8.87 11.95 8.87ZM11.95 15.1C10.59 15.1 9.5 14 9.5 12.65C9.5 11.29 10.59 10.2 11.95 10.2C13.3 10.2 14.39 11.29 14.39 12.65C14.39 14 13.3 15.1 11.95 15.1ZM16.75 8.72C16.75 9.21 16.35 9.61 15.87 9.61C15.38 9.61 14.99 9.21 14.99 8.72C14.99 8.24 15.38 7.84 15.87 7.84C16.35 7.84 16.75 8.24 16.75 8.72Z" fill="#000000" fill-opacity="1.000000" fill-rule="evenodd"/>
	<path id="Oval Copy 4" d="M11.95 24.85C5.21 24.85 -0.26 19.39 -0.26 12.65C-0.26 5.91 5.21 0.44 11.95 0.44C18.68 0.44 24.15 5.91 24.15 12.65C24.15 19.39 18.68 24.85 11.95 24.85Z" stroke="#FFFFFF" stroke-opacity="1.000000" stroke-width="1.000000"/>
</svg>
