<svg width="25.000000" height="26.000000" viewBox="0 0 25 26" fill="none" xmlns="http://www.w3.org/2000/svg" xmlns:xlink="http://www.w3.org/1999/xlink">
	<desc>
			Created with Pixso.
	</desc>
	<defs/>
	<path id="Rectangle" d="M4.29 5.36L20.27 5.36L20.27 19.93L4.29 19.93L4.29 5.36Z" fill="#FFFFFF" fill-opacity="1.000000" fill-rule="evenodd"/>
	<path id="Shape" d="M12.04 0.89C18.53 0.89 23.8 6.16 23.8 12.65C23.8 19.13 18.53 24.4 12.04 24.4C5.56 24.4 0.29 19.13 0.29 12.65C0.29 6.16 5.56 0.89 12.04 0.89ZM8.37 19.25L8.37 10.07L5.32 10.07L5.32 19.25L8.37 19.25ZM19.37 19.25L19.37 13.99C19.37 11.17 17.87 9.86 15.86 9.86C14.24 9.86 13.52 10.75 13.11 11.37L13.11 10.07L10.06 10.07C10.1 10.93 10.06 19.25 10.06 19.25L13.11 19.25L13.11 14.13C13.11 13.85 13.13 13.58 13.21 13.38C13.43 12.83 13.93 12.27 14.78 12.27C15.88 12.27 16.32 13.11 16.32 14.34L16.32 19.25L19.37 19.25ZM6.86 5.65C5.82 5.65 5.14 6.33 5.14 7.23C5.14 8.11 5.8 8.82 6.82 8.82L6.84 8.82C7.91 8.82 8.57 8.11 8.57 7.23C8.55 6.33 7.91 5.65 6.86 5.65Z" fill="#000000" fill-opacity="1.000000" fill-rule="evenodd"/>
	<path id="Oval" d="M12.04 24.85C5.31 24.85 -0.16 19.39 -0.16 12.65C-0.16 5.91 5.31 0.44 12.04 0.44C18.78 0.44 24.25 5.91 24.25 12.65C24.25 19.39 18.78 24.85 12.04 24.85Z" stroke="#FFFFFF" stroke-opacity="1.000000" stroke-width="1.000000"/>
</svg>
