<svg width="98.000000" height="13.000000" viewBox="0 0 98 13" fill="none" xmlns="http://www.w3.org/2000/svg" xmlns:xlink="http://www.w3.org/1999/xlink">
	<desc>
			Created with Pixso.
	</desc>
	<defs>
		<clipPath id="clip1_3355">
			<rect id="Frame" width="98.000000" height="13.000000" fill="white" fill-opacity="0"/>
		</clipPath>
	</defs>
	<g clip-path="url(#clip1_3355)">
		<path id="Fill 1" d="M0 0L4.51 0L4.51 10.74C4.51 11.72 5.57 11.82 6.06 11.82L11.24 11.82L11.24 12.67L1.53 12.67L1.53 0.84L0 0.84L0 0Z" fill="#000000" fill-opacity="1.000000" fill-rule="evenodd"/>
		<path id="Fill 2" d="M37.92 0L36.9 0L32.36 7.44L27.82 0L23.46 0L23.46 0.85L24.95 0.85L29.99 9.1L29.99 12.67L35.06 12.67L35.06 11.82L34.06 11.82C33.54 11.82 32.91 11.54 32.91 10.88L32.92 8.24L37.92 0Z" fill="#000000" fill-opacity="1.000000" fill-rule="evenodd"/>
		<path id="Fill 3" d="M49.69 0L49.69 0.85L51.25 0.85L51.25 12.67L52.17 12.67L52.17 3.16L58.07 12.65L64.22 2.82L64.22 12.66L68.96 12.66L68.96 11.81C68.61 11.81 67.21 11.81 67.21 10.83L67.21 0L64.93 0L59.3 9.04L53.62 0L49.69 0L49.69 0Z" fill="#000000" fill-opacity="1.000000" fill-rule="evenodd"/>
		<path id="Fill 4" d="M83.17 7.25L86.59 1.84L90 7.25L83.17 7.25ZM95.55 10.55L88.91 0L84.58 0L84.58 0.85L86.1 0.85L78.67 12.67L79.74 12.67L82.63 8.1L90.53 8.1L93.41 12.67L97.95 12.67L97.95 11.82C96.96 11.82 96.05 11.33 95.55 10.55Z" fill="#000000" fill-opacity="1.000000" fill-rule="evenodd"/>
	</g>
</svg>
