<svg width="26.000000" height="26.000000" viewBox="0 0 26 26" fill="none" xmlns="http://www.w3.org/2000/svg" xmlns:xlink="http://www.w3.org/1999/xlink">
	<desc>
			Created with Pixso.
	</desc>
	<defs>
		<clipPath id="clip1_3721">
			<rect id="Frame" width="26.000000" height="26.000000" fill="white" fill-opacity="0"/>
		</clipPath>
	</defs>
	<g clip-path="url(#clip1_3721)">
		<path id="Rectangle" d="M5.59 4.89L21.34 4.89L21.34 20.87L5.59 20.87L5.59 4.89Z" fill="#FFFFFF" fill-opacity="1.000000" fill-rule="evenodd"/>
		<path id="Rectangle" d="M8.88 18.99L11.7 18.99L11.7 23.46L8.88 23.46L8.88 18.99Z" fill="#FFFFFF" fill-opacity="1.000000" fill-rule="evenodd"/>
		<path id="Path" d="M13.34 0.89C6.85 0.89 1.59 6.15 1.59 12.65C1.59 17.63 4.69 21.88 9.06 23.6C8.96 22.67 8.86 21.24 9.1 20.22C9.31 19.3 10.48 14.38 10.48 14.38C10.48 14.38 10.13 13.67 10.13 12.63C10.13 11 11.07 9.78 12.25 9.78C13.26 9.78 13.74 10.53 13.74 11.43C13.74 12.44 13.1 13.95 12.77 15.35C12.49 16.52 13.36 17.47 14.51 17.47C16.6 17.47 18.2 15.27 18.2 12.09C18.2 9.27 16.18 7.31 13.29 7.31C9.95 7.31 7.99 9.81 7.99 12.41C7.99 13.42 8.38 14.5 8.86 15.09C8.96 15.21 8.97 15.31 8.94 15.43C8.85 15.8 8.66 16.6 8.62 16.76C8.56 16.98 8.45 17.02 8.22 16.92C6.75 16.23 5.84 14.09 5.84 12.36C5.84 8.66 8.53 5.25 13.6 5.25C17.68 5.25 20.85 8.16 20.85 12.04C20.85 16.09 18.3 19.35 14.75 19.35C13.56 19.35 12.44 18.73 12.06 18C12.06 18 11.47 20.25 11.32 20.8C11.06 21.82 10.34 23.1 9.86 23.88C10.96 24.22 12.13 24.4 13.34 24.4C19.84 24.4 25.1 19.14 25.1 12.65C25.1 6.15 19.84 0.89 13.34 0.89Z" fill="#000000" fill-opacity="1.000000" fill-rule="evenodd"/>
		<path id="Oval Copy 5" d="M13.34 24.85C6.6 24.85 1.14 19.39 1.14 12.65C1.14 5.91 6.6 0.44 13.34 0.44C20.08 0.44 25.55 5.91 25.55 12.65C25.55 19.39 20.08 24.85 13.34 24.85Z" stroke="#FFFFFF" stroke-opacity="1.000000" stroke-width="1.000000"/>
	</g>
</svg>
