<svg width="26.000000" height="26.000000" viewBox="0 0 26 26" fill="none" xmlns="http://www.w3.org/2000/svg" xmlns:xlink="http://www.w3.org/1999/xlink">
	<desc>
			Created with Pixso.
	</desc>
	<defs>
		<clipPath id="clip1_3710">
			<rect id="Frame" width="26.000000" height="26.000000" fill="white" fill-opacity="0"/>
		</clipPath>
	</defs>
	<g clip-path="url(#clip1_3710)">
		<path id="Rectangle" d="M3.53 6.31L21.96 6.31L21.96 19.19L3.53 19.19L3.53 6.31Z" fill="#FFFFFF" fill-opacity="1.000000" fill-rule="evenodd"/>
		<path id="Shape" d="M12.62 0C19.59 0 25.25 5.65 25.25 12.62C25.25 19.59 19.59 25.25 12.62 25.25C5.65 25.25 0 19.59 0 12.62C0 5.65 5.65 0 12.62 0ZM20.18 8.82C20 8.14 19.47 7.61 18.79 7.43C17.56 7.1 12.62 7.1 12.62 7.1C12.62 7.1 7.69 7.1 6.45 7.43C5.78 7.61 5.24 8.14 5.06 8.82C4.73 10.05 4.73 12.62 4.73 12.62C4.73 12.62 4.73 15.19 5.06 16.42C5.24 17.1 5.78 17.63 6.45 17.81C7.69 18.14 12.62 18.14 12.62 18.14C12.62 18.14 17.56 18.14 18.79 17.81C19.47 17.63 20 17.1 20.18 16.42C20.51 15.19 20.51 12.62 20.51 12.62C20.51 12.62 20.51 10.05 20.18 8.82ZM11.04 14.99L11.04 10.25L15.14 12.62L11.04 14.99Z" fill="#000000" fill-opacity="1.000000" fill-rule="evenodd"/>
		<path id="Oval Copy 6" d="M12.62 24.76C5.91 24.76 0.48 19.33 0.48 12.62C0.48 5.91 5.91 0.48 12.62 0.48C19.33 0.48 24.76 5.91 24.76 12.62C24.76 19.33 19.33 24.76 12.62 24.76Z" stroke="#FFFFFF" stroke-opacity="1.000000" stroke-width="1.000000"/>
	</g>
</svg>
